# xmcd
#
# Track frame offsets:
#	150
#	15610
#	32557
#	46315
#	62962
#	77574
#	92663
#	107619
#	123588
#	144551
#	158210
#	172416
#	187367
#	201010
#	218025
#	231618
#	249990
#	264130
#	278956
#	292022
#	307724
#
# Disc length: 4284 seconds
#
# Revision: 0
# Processed by: cddbd v1.5.2PL0 Copyright (c) Steve Scherf et al.
# Submitted via: EZCDAudioConverter 3.1.7.1
#
DISCID=3410ba15
DTITLE=Hott Country Volume 242 CAN
DYEAR=2016
DGENRE=country
TTITLE0=Kenny Chesney - Noise
TTITLE1=Keith Urban - Wasted Time
TTITLE2=Cold Creek County - Beer Weather
TTITLE3=Blake Shelton - Came Here To Forget
TTITLE4=Carrie Underwood - Church Bells
TTITLE5=Aaron Pritchett - Dirt Road In 'Em
TTITLE6=Jake Owen - American Country Love Song
TTITLE7=Lanie McAuley - Pour Me One More
TTITLE8=Luke Bryan - Huntin’, Fishin’, And Lovin’ Every Day
TTITLE9=George Canyon - Daughter Of The Sun
TTITLE10=Zac Brown Band - Castaway
TTITLE11=Kelsea Ballerini - Peter Pan
TTITLE12=Love And Theft - Whiskey On My Breath
TTITLE13=Dean Brody - Monterey
TTITLE14=Randy Houser - Song Number 7
TTITLE15=Craig Campbell - Outskirts Of Heaven
TTITLE16=High Valley - Be You
TTITLE17=Tara Thompson - Someone To Take Your Place
TTITLE18=Jana Kramer - Said No One Ever
TTITLE19=Meghan Patrick - Bow Chicka Wow Wow
TTITLE20=Loving Mary - Drinking With You
EXTD=
EXTT0=
EXTT1=
EXTT2=
EXTT3=
EXTT4=
EXTT5=
EXTT6=
EXTT7=
EXTT8=
EXTT9=
EXTT10=
EXTT11=
EXTT12=
EXTT13=
EXTT14=
EXTT15=
EXTT16=
EXTT17=
EXTT18=
EXTT19=
EXTT20=
PLAYORDER=
